<svg xmlns="http://www.w3.org/2000/svg" xmlns:xlink="http://www.w3.org/1999/xlink" id="Layer_2" data-name="Layer 2" viewBox="0 0 459.33 215.28">
  <defs>
    <style>
      .cls-1 {
        fill: url(#linear-gradient-2);
      }

      .cls-2 {
        fill: #0064df;
      }

      .cls-3 {
        fill: none;
      }

      .cls-4 {
        fill: url(#linear-gradient);
      }
    </style>
    <linearGradient id="linear-gradient" x1="141.21" y1="52.33" x2="73.03" y2="178.83" gradientUnits="userSpaceOnUse">
      <stop offset="0" stop-color="#0064df"/>
      <stop offset="1" stop-color="#39b54a"/>
    </linearGradient>
    <linearGradient id="linear-gradient-2" x1="313.72" y1="152.94" x2="368.2" y2="76.81" gradientUnits="userSpaceOnUse">
      <stop offset="0" stop-color="#0064df"/>
      <stop offset="1" stop-color="#fbb040"/>
    </linearGradient>
  </defs>
  <g id="Layer_1-2" data-name="Layer 1">
    <g>
      <path class="cls-4" d="M229.17,125.29l-39.3,41.84c-91.43,92.02-159.63,24.36-172.3,4.7C7.57,156.31-30.59,66.97,51.61,15.31c74.77-47.32,156.12,35.08,154.18,31.69,3.88,3.11,11.11,10.87,22.32,22.82-9.38,9.6-19.03,19.92-25.86,27.29-7.33-7.43-14.15-14.06-19.94-19.19-30.04-26.6-50.96-37.08-73.34-36.1-1.19.05-2.38.06-3.58.04-47.07-.71-90.9,66.58-48.69,113.14,43.4,47.88,90.73-2.26,92.35-3.91l43.82-43.76s3.72-4.1,9.38-10.22c8.56,8.68,17.81,18.46,26.92,28.18Z"/>
      <path class="cls-3" d="M254.83,97.98l-25.66,27.31c-9.11-9.72-18.36-19.5-26.92-28.18,6.83-7.37,16.48-17.69,25.86-27.29,7.21,7.69,16.06,17.12,26.72,28.16Z"/>
      <path class="cls-1" d="M388.13,211.74c-55.24,15.08-92.51-22.14-109.56-34.82-9.76-8.8-29.23-30.1-49.4-51.63l25.66-27.31c13.42,13.91,29.71,30.39,49.19,49.2,59.24,57.18,105.75,15.77,112.29-17.61,6.94-35.49-10.96-77.87-55.96-87.65-45-9.79-95.87,45.78-95.87,45.78l-9.65,10.28c-10.66-11.04-19.51-20.47-26.72-28.16,9.19-9.43,18.12-18.18,23.85-22.82,16.44-13.3,33.59-33.1,80.22-45,45.29-11.56,119.13,28.11,126,91.57,7.34,67.85-21.19,104.84-70.05,118.17Z"/>
      <path class="cls-2" d="M254.83,97.98l-25.66,27.31c-9.11-9.72-18.36-19.5-26.92-28.18,6.83-7.37,16.48-17.69,25.86-27.29,7.21,7.69,16.06,17.12,26.72,28.16Z"/>
    </g>
  </g>
</svg>
